**ABCDEFGHIJKLMNOPQRSTUVWXYZabcdefghijklmnopqrstuvwxyz**************************
**PARASOLID !"#$%&'()*+,-./:;<=>?@[\]^_`{|}~0123456789**************************
**PART1;
MC=Intel x86;
MC_MODEL=Level 6 Model 23 Stepping 6;
MC_ID=PC-DE-FRED;
OS=Windows Vista;
OS_RELEASE=Build 6002 Service Pack 2.0;
FRU=PRO/INTERFACE BY PTC, 2012130;
APPL=PRO/ENGINEER BY PTC, 2012130;
SITE=;
USER=fred;
FORMAT=text;
GUISE=transmit;
KEY=SUPPORT2;
FILE=support2.x_t;
DATE=01-22-2015;
**PART2;
SCH=SCH_1000149_10004;
USFLD_SIZE=0;
**PART3;
**END_OF_HEADER*****************************************************************
T51 : TRANSMIT FILE created by modeller version 100014917 SCH_1000149_100040 12
 1 337 5 7 0 0 0 0 1e3 1e-8 0 0 0 1 0 1 1 78 477 77 172 81 468 173 79 13 2 SDL/T
YSA_NAME80 1 3 0 2 8017 0 0 0 0 0 0 0 0 TTTTTTTTTTTTT3 84 8 4 SUPPORT281 1 5 1
 3 1 0 0 0 0 4 74 20 6 1 0 5 0 0 0 0 0 0 0 0 0 0 0 0 0 0 0 0 0 0 0 70 7 0 1 0 0
 4 1 20 4 6 6 1 T31 8 2 0 177 0 9 0 +0e0 0e0 0e0 0e0 0e0 1e0 1e0 0e0 0e0
 4.8641e-1 31 9 3 0 179 8 10 0 +0e0 0e0 0e0 0e0 0e0 1e0 -1e0 0e0 0e0 4.8641e-1
 31 10 4 0 182 9 11 0 +0e0 0e0 0e0 0e0 0e0 1e0 -1e0 0e0 0e0 2.54e-1 31 11 5 0
 184 10 12 0 +0e0 0e0 0e0 0e0 0e0 1e0 1e0 0e0 0e0 2.54e-1 31 12 6 0 189 11 13 0
 +0e0 0e0 2.032e-1 0e0 0e0 1e0 1e0 0e0 0e0 4.8641e-1 30 13 7 0 194 12 14 0 +
4.8641e-1 0e0 0e0 0e0 0e0 1e0 31 14 8 0 220 13 15 0 +-5.969e-1 5.969e-1
 2.032e-1 0e0 0e0 1e0 1e0 0e0 0e0 6.985e-2 31 15 9 0 222 14 16 0 +-5.969e-1
 5.969e-1 2.032e-1 0e0 0e0 1e0 -1e0 0e0 0e0 6.985e-2 31 16 10 0 225 15 17 0 +
5.969e-1 -5.969e-1 2.032e-1 0e0 0e0 1e0 1e0 0e0 0e0 6.985e-2 31 17 11 0 227 16
 18 0 +5.969e-1 -5.969e-1 2.032e-1 0e0 0e0 1e0 -1e0 0e0 0e0 6.985e-2 30 18 12 0
 232 17 19 0 +-2.29773752250936e-1 6.59625858177593e-1 8.382e-1 0e0 0e0 -1e0 31
 19 13 0 199 18 20 0 +0e0 0e0 2.032e-1 0e0 0e0 -1e0 -3.28953117037850e-1
 9.44346253654391e-1 0e0 6.985e-1 30 20 14 0 235 19 21 0 +6.59625858177593e-1
 -2.29773752250936e-1 2.032e-1 0e0 0e0 1e0 31 21 15 0 237 20 22 0 +0e0 0e0
 8.382e-1 0e0 0e0 1e0 9.44346253654391e-1 -3.28953117037848e-1 0e0 6.985e-1 31
 22 16 0 243 21 23 0 +-2.96617025633027e-1 8.51517016920165e-1 8.382e-1 0e0 0e0
 -1e0 3.28953117037836e-1 -9.44346253654395e-1 0e0 2.032e-1 31 23 17 0 201 22
 24 0 +-2.96617025633027e-1 8.51517016920165e-1 2.032e-1 0e0 0e0 1e0
 -7.62720280332708e-1 -6.46728516434210e-1 0e0 2.032e-1 31 24 18 0 266 23 25 0 +
0e0 0e0 8.382e-1 0e0 0e0 -1e0 -1e0 0e0 0e0 6.09929404390230e-1 31 25 19 0 268
 24 26 0 +0e0 0e0 8.382e-1 0e0 0e0 -1e0 1e0 0e0 0e0 6.09929404390230e-1 31 26
 20 0 271 25 27 0 +-5.969e-1 5.969e-1 8.382e-1 0e0 0e0 1e0 1e0 0e0 0e0
 1.3335e-1 31 27 21 0 273 26 28 0 +-5.969e-1 5.969e-1 8.382e-1 0e0 0e0 1e0 -1e0
 0e0 0e0 1.3335e-1 31 28 22 0 276 27 29 0 +5.969e-1 -5.969e-1 8.382e-1 0e0 0e0
 1e0 1e0 0e0 0e0 1.4605e-1 31 29 23 0 278 28 30 0 +5.969e-1 -5.969e-1 8.382e-1
 0e0 0e0 1e0 -1e0 0e0 0e0 1.4605e-1 30 30 24 0 283 29 31 0 +
-7.20101782380725e-1 4.51601786596626e-1 2.032e-1 0e0 0e0 1e0 31 31 25 0 203 30
 32 0 +-5.969e-1 5.969e-1 2.032e-1 0e0 0e0 -1e0 -6.46728516434252e-1
 -7.62720280332673e-1 0e0 1.905e-1 30 32 26 0 245 31 33 0 +-4.51601786596626e-1
 7.20101782380725e-1 8.382e-1 0e0 0e0 -1e0 31 33 27 0 251 32 34 0 +-5.969e-1
 5.969e-1 8.382e-1 0e0 0e0 1e0 7.62720280332636e-1 6.46728516434296e-1 0e0
 1.905e-1 31 34 28 0 205 33 35 0 +-8.51517016920165e-1 2.96617025633026e-1
 2.032e-1 0e0 0e0 1e0 9.44346253654392e-1 -3.28953117037847e-1 0e0 2.032e-1 31
 35 29 0 263 34 36 0 +-8.51517016920165e-1 2.96617025633026e-1 8.382e-1 0e0 0e0
 -1e0 6.46728516434252e-1 7.62720280332673e-1 0e0 2.032e-1 30 36 30 0 291 35 37
 0 +-6.59625858177593e-1 2.29773752250936e-1 2.032e-1 0e0 0e0 1e0 31 37 31 0
 261 36 38 0 +0e0 0e0 8.382e-1 0e0 0e0 1e0 -9.44346253654392e-1
 3.28953117037847e-1 0e0 6.985e-1 30 38 32 0 301 37 39 0 +2.29773752250936e-1
 -6.59625858177593e-1 8.382e-1 0e0 0e0 -1e0 31 39 33 0 207 38 40 0 +0e0 0e0
 2.032e-1 0e0 0e0 -1e0 3.28953117037847e-1 -9.44346253654392e-1 0e0 6.985e-1 31
 40 34 0 259 39 41 0 +2.96617025633027e-1 -8.51517016920165e-1 8.382e-1 0e0 0e0
 -1e0 -3.28953117037848e-1 9.44346253654391e-1 0e0 2.032e-1 31 41 35 0 209 40
 42 0 +2.96617025633027e-1 -8.51517016920165e-1 2.032e-1 0e0 0e0 1e0
 7.62720280332673e-1 6.46728516434252e-1 0e0 2.032e-1 30 42 36 0 315 41 43 0 +
7.20101782380725e-1 -4.51601786596626e-1 2.032e-1 0e0 0e0 1e0 31 43 37 0 211 42
 44 0 +5.969e-1 -5.969e-1 2.032e-1 0e0 0e0 -1e0 6.46728516434253e-1
 7.62720280332673e-1 0e0 1.905e-1 30 44 38 0 309 43 45 0 +4.51601786596626e-1
 -7.20101782380725e-1 8.382e-1 0e0 0e0 -1e0 31 45 39 0 257 44 46 0 +5.969e-1
 -5.969e-1 8.382e-1 0e0 0e0 1e0 -7.62720280332673e-1 -6.46728516434251e-1 0e0
 1.905e-1 31 46 40 0 213 45 47 0 +8.51517016920165e-1 -2.96617025633027e-1
 2.032e-1 0e0 0e0 1e0 -9.44346253654393e-1 3.28953117037844e-1 0e0 2.032e-1 31
 47 41 0 255 46 48 0 +8.51517016920165e-1 -2.96617025633027e-1 8.382e-1 0e0 0e0
 -1e0 -6.46728516434252e-1 -7.62720280332673e-1 0e0 2.032e-1 31 48 42 0 335 47
 49 0 +-6.09929404390230e-1 0e0 8.001e-1 0e0 1e0 0e0 3.20536831256607e-14 0e0
 1e0 3.81e-2 31 49 43 0 331 48 50 0 +6.09929404390230e-1 0e0 8.001e-1 0e0 -1e0
 0e0 -3.20536831256607e-14 0e0 1e0 3.81e-2 31 50 44 0 342 49 51 0 +0e0 0e0
 8.01052202483195e-1 0e0 0e0 -1e0 1e0 0e0 0e0 5.71841305062080e-1 30 51 45 0
 349 50 52 0 +-5.6007e-1 0e0 3.30199999999998e-1 -2.49921911602031e-2 0e0
 9.99687646408123e-1 31 52 46 0 351 51 53 0 +0e0 0e0 3.30200000000001e-1 0e0
 0e0 1e0 -1e0 0e0 0e0 5.6007e-1 30 53 47 0 353 52 54 0 +5.6007e-1 0e0
 3.30199999999998e-1 2.49921911602026e-2 0e0 9.99687646408123e-1 31 54 48 0 333
 53 55 0 +0e0 0e0 8.01052202483195e-1 0e0 0e0 -1e0 -1e0 0e0 0e0
 5.71841305062080e-1 31 55 49 0 360 54 56 0 +0e0 0e0 3.30200000000001e-1 0e0
 0e0 -1e0 -1e0 0e0 0e0 5.6007e-1 31 56 50 0 369 55 57 0 +0e0 0e0 3.302e-1 0e0
 0e0 1e0 -1e0 0e0 0e0 2.54e-1 31 57 51 0 371 56 58 0 +0e0 0e0 3.302e-1 0e0 0e0
 1e0 1e0 0e0 0e0 2.54e-1 30 58 52 0 380 57 59 0 +-2.54e-1 0e0 3.302e-1 0e0 0e0
 -1e0 30 59 53 0 377 58 60 0 +2.54e-1 0e0 3.302e-1 0e0 0e0 -1e0 30 60 54 0 393
 59 61 0 +-4.6355e-1 5.969e-1 8.382e-1 0e0 0e0 -1e0 30 61 55 0 397 60 62 0 +
-7.3025e-1 5.969e-1 8.382e-1 0e0 0e0 -1e0 31 62 56 0 395 61 63 0 +-5.969e-1
 5.969e-1 6.731e-1 0e0 0e0 1e0 1e0 0e0 0e0 1.3335e-1 31 63 57 0 404 62 64 0 +
-5.969e-1 5.969e-1 6.731e-1 0e0 0e0 1e0 -1e0 0e0 0e0 1.3335e-1 31 64 58 0 413
 63 65 0 +-5.969e-1 5.969e-1 6.731e-1 0e0 0e0 1e0 1e0 0e0 0e0 6.985e-2 30 65 59
 0 421 64 66 0 +-5.2705e-1 5.969e-1 6.731e-1 0e0 0e0 -1e0 31 66 60 0 415 65 67
 0 +-5.969e-1 5.969e-1 6.731e-1 0e0 0e0 1e0 -1e0 0e0 0e0 6.985e-2 30 67 61 0
 424 66 68 0 +-6.6675e-1 5.969e-1 6.731e-1 0e0 0e0 -1e0 30 68 62 0 437 67 69 0 +
7.4295e-1 -5.969e-1 8.382e-1 0e0 0e0 -1e0 30 69 63 0 441 68 70 0 +4.5085e-1
 -5.969e-1 8.382e-1 0e0 0e0 -1e0 31 70 64 0 439 69 71 0 +5.969e-1 -5.969e-1
 6.731e-1 0e0 0e0 1e0 1e0 0e0 0e0 1.4605e-1 31 71 65 0 448 70 72 0 +5.969e-1
 -5.969e-1 6.731e-1 0e0 0e0 1e0 -1e0 0e0 0e0 1.4605e-1 31 72 66 0 457 71 73 0 +
5.969e-1 -5.969e-1 6.731e-1 0e0 0e0 1e0 1e0 0e0 0e0 6.985e-2 30 73 67 0 465 72
 74 0 +6.6675e-1 -5.969e-1 6.731e-1 0e0 0e0 -1e0 31 74 68 0 459 73 75 0 +
5.969e-1 -5.969e-1 6.731e-1 0e0 0e0 1e0 -1e0 0e0 0e0 6.985e-2 30 75 69 0 468 74
 76 0 +5.2705e-1 -5.969e-1 6.731e-1 0e0 0e0 -1e0 31 76 70 0 217 75 77 0 +0e0
 0e0 2.032e-1 0e0 0e0 1e0 -1e0 0e0 0e0 4.8641e-1 30 77 71 0 191 76 0 0 +
-4.8641e-1 0e0 0e0 0e0 0e0 1e0 13 78 72 0 1 0 478 0 0 79 0 19 79 337 0 1 0 81
 78 S13 80 73 0 0 0 0 0 0 81 478 19 81 74 0 1 79 0 80 V29 82 75 0 83 0 84
 4.8641e-1 0e0 0e0 18 83 76 0 482 85 0 82 ?1 29 84 77 0 85 82 86 -4.8641e-1 0e0
 0e0 18 85 78 0 483 87 83 84 ?1 29 86 79 0 87 84 88 4.8641e-1 0e0 2.032e-1 18
 87 80 0 481 89 85 86 ?1 29 88 81 0 89 86 90 -4.8641e-1 0e0 2.032e-1 18 89 82 0
 480 91 87 88 ?1 29 90 83 0 91 88 92 -5.6007e-1 0e0 3.30199999999998e-1 18 91
 84 0 366 93 89 90 ?1 29 92 85 0 93 90 94 5.6007e-1 0e0 3.30199999999999e-1 18
 93 86 0 367 95 91 92 ?1 29 94 87 0 95 92 96 -2.54e-1 0e0 0e0 18 95 88 0 386 97
 93 94 ?1 29 96 89 0 97 94 98 2.54e-1 0e0 0e0 18 97 90 0 385 99 95 96 ?1 29 98
 91 0 99 96 100 -2.54e-1 0e0 3.302e-1 18 99 92 0 387 101 97 98 ?1 29 100 93 0
 101 98 102 2.54e-1 0e0 3.302e-1 18 101 94 0 388 103 99 100 ?1 29 102 95 0 103
 100 104 -6.09929404390228e-1 0e0 8.382e-1 18 103 96 0 341 105 101 102 ?1 29
 104 97 0 105 102 106 6.09929404390228e-1 0e0 8.382e-1 18 105 98 0 340 107 103
 104 ?1 29 106 99 0 107 104 108 -5.71841305062080e-1 -7.25453813728074e-14
 8.01052202483203e-1 18 107 100 0 358 109 105 106 ?1 29 108 101 0 109 106 110
 5.71841305062080e-1 7.24648816359894e-14 8.01052202483203e-1 18 109 102 0 359
 111 107 108 ?1 29 110 103 0 111 108 112 -6.59625858177593e-1
 2.29773752250936e-1 2.032e-1 18 111 104 0 299 113 109 110 ?1 29 112 105 0 113
 110 114 -6.59625858177593e-1 2.29773752250936e-1 8.382e-1 18 113 106 0 300 115
 111 112 ?1 29 114 107 0 115 112 116 -7.20101782380725e-1 4.51601786596626e-1
 2.032e-1 18 115 108 0 294 117 113 114 ?1 29 116 109 0 117 114 118
 -7.20101782380725e-1 4.51601786596626e-1 8.382e-1 18 117 110 0 295 119 115 116
 ?1 29 118 111 0 119 116 120 -2.29773752250937e-1 6.59625858177592e-1 8.382e-1
 18 119 112 0 254 121 117 118 ?1 29 120 113 0 121 118 122 -2.29773752250937e-1
 6.59625858177592e-1 2.032e-1 18 121 114 0 242 123 119 120 ?1 29 122 115 0 123
 120 124 -4.51601786596628e-1 7.20101782380728e-1 8.382e-1 18 123 116 0 287 125
 121 122 ?1 29 124 117 0 125 122 126 -4.51601786596628e-1 7.20101782380728e-1
 2.032e-1 18 125 118 0 286 127 123 124 ?1 29 126 119 0 127 124 128
 6.59625858177592e-1 -2.29773752250936e-1 2.032e-1 18 127 120 0 324 129 125 126
 ?1 29 128 121 0 129 126 130 6.59625858177592e-1 -2.29773752250936e-1 8.382e-1
 18 129 122 0 323 131 127 128 ?1 29 130 123 0 131 128 132 7.20101782380725e-1
 -4.51601786596626e-1 2.032e-1 18 131 124 0 325 133 129 130 ?1 29 132 125 0 133
 130 134 7.20101782380725e-1 -4.51601786596626e-1 8.382e-1 18 133 126 0 326 135
 131 132 ?1 29 134 127 0 135 132 136 2.29773752250936e-1 -6.59625858177593e-1
 8.382e-1 18 135 128 0 308 137 133 134 ?1 29 136 129 0 137 134 138
 2.29773752250936e-1 -6.59625858177593e-1 2.032e-1 18 137 130 0 307 139 135 136
 ?1 29 138 131 0 139 136 140 4.51601786596626e-1 -7.20101782380725e-1 8.382e-1
 18 139 132 0 319 141 137 138 ?1 29 140 133 0 141 138 142 4.51601786596626e-1
 -7.20101782380725e-1 2.032e-1 18 141 134 0 318 143 139 140 ?1 29 142 135 0 143
 140 144 -5.2705e-1 5.969e-1 2.032e-1 18 143 136 0 432 145 141 142 ?1 29 144
 137 0 145 142 146 -6.6675e-1 5.969e-1 2.032e-1 18 145 138 0 431 147 143 144 ?1
 29 146 139 0 147 144 148 6.6675e-1 -5.969e-1 2.032e-1 18 147 140 0 476 149 145
 146 ?1 29 148 141 0 149 146 150 5.2705e-1 -5.969e-1 2.032e-1 18 149 142 0 475
 151 147 148 ?1 29 150 143 0 151 148 152 -4.6355e-1 5.969e-1 6.731e-1 18 151
 144 0 411 153 149 150 ?1 29 152 145 0 153 150 154 -7.3025e-1 5.969e-1 6.731e-1
 18 153 146 0 410 155 151 152 ?1 29 154 147 0 155 152 156 7.4295e-1 -5.969e-1
 6.731e-1 18 155 148 0 455 157 153 154 ?1 29 156 149 0 157 154 158 4.5085e-1
 -5.969e-1 6.731e-1 18 157 150 0 454 159 155 156 ?1 29 158 151 0 159 156 160
 -4.6355e-1 5.969e-1 8.382e-1 18 159 152 0 402 161 157 158 ?1 29 160 153 0 161
 158 162 -7.3025e-1 5.969e-1 8.382e-1 18 161 154 0 403 163 159 160 ?1 29 162
 155 0 163 160 164 7.4295e-1 -5.969e-1 8.382e-1 18 163 156 0 446 165 161 162 ?1
 29 164 157 0 165 162 166 4.5085e-1 -5.969e-1 8.382e-1 18 165 158 0 447 167 163
 164 ?1 29 166 159 0 167 164 168 -5.2705e-1 5.969e-1 6.731e-1 18 167 160 0 429
 169 165 166 ?1 29 168 161 0 169 166 170 -6.6675e-1 5.969e-1 6.731e-1 18 169
 162 0 430 171 167 168 ?1 29 170 163 0 171 168 172 6.6675e-1 -5.969e-1 6.731e-1
 18 171 164 0 473 173 169 170 ?1 29 172 165 0 173 170 0 5.2705e-1 -5.969e-1
 6.731e-1 18 173 166 0 474 0 171 172 ?1 50 174 167 0 175 0 186 0 +0e0 0e0 0e0
 0e0 0e0 1e0 1e0 0e0 0e0 14 175 168 0 ?0 187 181 78 174 -0 0 0 187 80 15 176
 169 0 180 175 0 16 177 170 0 ?193 179 0 8 0 0 1 17 178 176 180 180 83 193 177
 0 0 -16 179 171 0 ?482 182 177 9 0 0 1 17 180 176 178 178 85 482 179 0 0 -15
 181 172 0 185 175 176 16 182 173 0 ?183 184 179 10 0 0 1 17 183 181 185 185 97
 376 182 0 0 +16 184 174 0 ?185 189 182 11 0 0 1 17 185 181 183 183 95 385 184
 0 0 +51 186 175 0 187 174 196 0 +0e0 0e0 0e0 0e0 0e0 1e0 4.8641e-1 1e0 0e0 0e0
 14 187 176 0 ?175 197 188 78 186 +0 0 175 197 80 15 188 177 0 195 187 0 16 189
 178 0 ?216 191 184 12 0 0 1 17 190 188 195 192 87 216 189 0 0 -16 191 179 0 ?
192 194 189 77 0 0 1 17 192 188 190 193 89 483 191 0 0 +17 193 188 192 195 85
 178 177 0 180 +16 194 180 0 ?481 199 191 13 0 0 1 17 195 188 193 190 83 481
 194 0 178 -50 196 181 0 197 186 229 0 +0e0 0e0 2.032e-1 0e0 0e0 1e0 1e0 0e0
 0e0 14 197 182 0 ?187 230 224 78 196 -0 0 187 230 80 15 198 183 0 214 197 0 16
 199 184 0 ?200 201 194 19 0 0 1 17 200 198 214 202 127 234 199 0 0 +16 201 185
 0 ?202 203 199 23 0 0 1 17 202 198 200 204 121 247 201 0 0 +16 203 186 0 ?204
 205 201 31 0 0 1 17 204 198 202 206 125 285 203 0 0 +16 205 187 0 ?206 207 203
 34 0 0 1 17 206 198 204 208 115 293 205 0 0 +16 207 188 0 ?208 209 205 39 0 0
 1 17 208 198 206 210 111 303 207 0 0 +16 209 189 0 ?210 211 207 41 0 0 1 17
 210 198 208 212 137 311 209 0 0 +16 211 190 0 ?212 213 209 43 0 0 1 17 212 198
 210 214 141 317 211 0 0 +16 213 191 0 ?214 217 211 46 0 0 1 17 214 198 212 200
 131 324 213 0 0 +15 215 192 0 218 197 198 17 216 215 218 218 89 190 189 0 192 +
16 217 193 0 ?218 220 213 76 0 0 1 17 218 215 216 216 87 480 217 0 190 +15 219
 194 0 223 197 215 16 220 195 0 ?221 222 217 14 0 0 1 17 221 219 223 223 145
 423 220 0 0 +16 222 196 0 ?223 225 220 15 0 0 1 17 223 219 221 221 143 431 222
 0 0 +15 224 197 0 228 197 219 16 225 198 0 ?226 227 222 16 0 0 1 17 226 224
 228 228 149 467 225 0 0 +16 227 199 0 ?228 232 225 17 0 0 1 17 228 224 226 226
 147 475 227 0 0 +51 229 200 0 230 196 239 0 +0e0 0e0 2.032e-1 0e0 0e0 1e0
 6.985e-1 1e0 0e0 0e0 14 230 201 0 ?197 240 231 78 229 +0 0 197 240 80 15 231
 202 0 238 230 0 16 232 203 0 ?242 235 227 18 0 0 1 17 233 231 238 234 119 242
 232 0 0 -17 234 231 233 236 121 200 199 0 202 -16 235 204 0 ?323 237 232 20 0
 0 1 17 236 231 234 238 127 323 235 0 200 -16 237 205 0 ?254 243 235 21 0 0 1
 17 238 231 236 233 129 254 237 0 0 -51 239 206 0 240 229 248 0 +
-2.96617025633027e-1 8.51517016920165e-1 1.93087752e0 0e0 0e0 -1e0 2.032e-1
 3.28953117037848e-1 -9.44346253654391e-1 0e0 14 240 207 0 ?230 249 241 78 239 -
0 0 230 249 80 15 241 208 0 247 240 0 17 242 241 247 244 121 233 232 0 234 +16
 243 209 0 ?253 245 237 22 0 0 1 17 244 241 242 246 119 253 243 0 233 -16 245
 210 0 ?286 251 243 32 0 0 1 17 246 241 244 247 123 286 245 0 0 -17 247 241 246
 242 125 202 201 0 204 -50 248 211 0 249 239 280 0 +0e0 0e0 8.382e-1 0e0 0e0
 1e0 1e0 0e0 0e0 14 249 212 0 ?240 281 275 78 248 +0 0 240 281 80 15 250 213 0
 264 249 0 16 251 214 0 ?252 255 245 33 0 0 1 17 252 250 264 253 117 287 251 0
 0 +17 253 250 252 254 123 244 243 0 246 +17 254 250 253 256 119 238 237 0 244 +
16 255 215 0 ?256 257 251 47 0 0 1 17 256 250 254 258 129 326 255 0 238 +16 257
 216 0 ?258 259 255 45 0 0 1 17 258 250 256 260 133 319 257 0 0 +16 259 217 0 ?
260 261 257 40 0 0 1 17 260 250 258 262 139 308 259 0 0 +16 261 218 0 ?262 263
 259 37 0 0 1 17 262 250 260 264 135 300 261 0 0 +16 263 219 0 ?264 266 261 35
 0 0 1 17 264 250 262 252 113 295 263 0 0 +15 265 220 0 269 249 250 16 266 221
 0 ?267 268 263 24 0 0 1 17 267 265 269 269 105 330 266 0 0 +16 268 222 0 ?269
 271 266 25 0 0 1 17 269 265 267 267 103 340 268 0 0 +15 270 223 0 274 249 265
 16 271 224 0 ?392 273 268 26 0 0 1 17 272 270 274 274 159 392 271 0 0 -16 273
 225 0 ?402 276 271 27 0 0 1 17 274 270 272 272 161 402 273 0 0 -15 275 226 0
 279 249 270 16 276 227 0 ?436 278 273 28 0 0 1 17 277 275 279 279 163 436 276
 0 0 -16 278 228 0 ?446 283 276 29 0 0 1 17 279 275 277 277 165 446 278 0 0 -51
 280 229 0 281 248 288 0 +-5.969e-1 5.969e-1 2.032e-1 0e0 0e0 -1e0 1.905e-1 0e0
 -1e0 0e0 14 281 230 0 ?249 289 282 78 280 +0 0 249 289 80 15 282 231 0 287 281
 0 16 283 232 0 ?284 291 278 30 0 0 1 17 284 282 287 285 117 294 283 0 252 +17
 285 282 284 286 115 204 203 0 206 -17 286 282 285 287 125 246 245 0 247 +17
 287 282 286 284 123 252 251 0 253 -51 288 233 0 289 280 296 0 +
-8.51517016920165e-1 2.96617025633026e-1 -1.09267752e0 0e0 0e0 1e0 2.032e-1
 9.44346253654392e-1 -3.28953117037847e-1 0e0 14 289 234 0 ?281 297 290 78 288 -
0 0 281 297 80 15 290 235 0 295 289 0 16 291 236 0 ?292 301 283 36 0 0 1 17 292
 290 295 293 113 299 291 0 264 +17 293 290 292 294 111 206 205 0 208 -17 294
 290 293 295 115 284 283 0 285 -17 295 290 294 292 117 264 263 0 284 -51 296
 237 0 297 288 304 0 +0e0 0e0 2.032e-1 0e0 0e0 1e0 6.985e-1 1e0 0e0 0e0 14 297
 238 0 ?289 305 298 78 296 +0 0 289 305 80 15 298 239 0 303 297 0 17 299 298
 303 300 111 292 291 0 293 -17 300 298 299 302 113 262 261 0 292 -16 301 240 0 ?
307 309 291 38 0 0 1 17 302 298 300 303 135 307 301 0 262 -17 303 298 302 299
 137 208 207 0 210 -51 304 241 0 305 296 312 0 +2.96617025633027e-1
 -8.51517016920165e-1 1.93087752e0 0e0 0e0 -1e0 2.032e-1 -3.28953117037848e-1
 9.44346253654391e-1 0e0 14 305 242 0 ?297 313 306 78 304 -0 0 297 313 80 15
 306 243 0 311 305 0 17 307 306 311 308 137 302 301 0 303 +17 308 306 307 310
 135 260 259 0 302 -16 309 244 0 ?318 315 301 44 0 0 1 17 310 306 308 311 139
 318 309 0 260 -17 311 306 310 307 141 210 209 0 212 -51 312 245 0 313 304 320
 0 +5.969e-1 -5.969e-1 2.032e-1 0e0 0e0 -1e0 1.905e-1 0e0 -1e0 0e0 14 313 246 0
 ?305 321 314 78 312 +0 0 305 321 80 15 314 247 0 319 313 0 16 315 248 0 ?316
 331 309 42 0 0 1 17 316 314 319 317 133 325 315 0 258 +17 317 314 316 318 131
 212 211 0 214 -17 318 314 317 319 141 310 309 0 311 +17 319 314 318 316 139
 258 257 0 310 -51 320 249 0 321 312 327 0 +8.51517016920165e-1
 -2.96617025633027e-1 -1.09267752e0 0e0 0e0 1e0 2.032e-1 -9.44346253654391e-1
 3.28953117037848e-1 0e0 14 321 250 0 ?313 328 322 78 320 -0 0 313 328 80 15
 322 251 0 326 321 0 17 323 322 326 324 129 236 235 0 256 +17 324 322 323 325
 127 214 213 0 236 -17 325 322 324 326 131 316 315 0 317 -17 326 322 325 323
 133 256 255 0 316 -54 327 252 0 328 320 337 0 +0e0 0e0 8.001e-1 0e0 0e0 -1e0
 6.09929404390230e-1 3.81e-2 -9.99983021132790e-1 -5.82730178875777e-3 0e0 14
 328 253 0 ?321 338 329 78 327 +0 0 321 338 80 15 329 254 0 336 328 0 17 330
 329 336 332 103 267 266 0 269 -16 331 255 0 ?344 333 315 49 0 0 1 17 332 329
 330 334 105 344 331 0 267 -16 333 256 0 ?334 335 331 54 0 0 1 17 334 329 332
 336 109 358 333 0 0 +16 335 257 0 ?336 342 333 48 0 0 1 17 336 329 334 330 107
 341 335 0 0 +54 337 258 0 338 327 345 0 +0e0 0e0 8.001e-1 0e0 0e0 -1e0
 6.09929404390230e-1 3.81e-2 9.99983021132790e-1 5.82730178875720e-3 0e0 14 338
 259 0 ?328 346 339 78 337 +0 0 328 346 80 15 339 260 0 344 338 0 17 340 339
 344 341 105 269 268 0 332 -17 341 339 340 343 103 336 335 0 330 -16 342 261 0 ?
343 349 335 50 0 0 1 17 343 339 341 344 107 348 342 0 336 +17 344 339 343 340
 109 332 331 0 334 +52 345 262 0 346 337 355 0 +0e0 0e0 3.20782955950335e-1 0e0
 0e0 1e0 5.59834573898758e-1 2.49921911602029e-2 9.99687646408123e-1 -1e0 0e0
 0e0 14 346 263 0 ?338 356 347 78 345 -0 0 338 356 80 15 347 264 0 354 346 0 17
 348 347 354 350 109 343 342 0 344 -16 349 265 0 ?350 351 342 51 0 0 1 17 350
 347 348 352 107 362 349 0 343 +16 351 266 0 ?367 353 349 52 0 0 1 17 352 347
 350 354 91 367 351 0 0 -16 353 267 0 ?359 360 351 53 0 0 1 17 354 347 352 348
 93 359 353 0 0 -52 355 268 0 356 345 363 0 +0e0 0e0 3.20782955950335e-1 0e0
 0e0 1e0 5.59834573898758e-1 2.49921911602029e-2 9.99687646408123e-1 -1e0 0e0
 0e0 14 356 269 0 ?346 364 357 78 355 -0 0 346 364 80 15 357 270 0 362 356 0 17
 358 357 362 359 107 334 333 0 350 -17 359 357 358 361 109 354 353 0 348 +16
 360 271 0 ?361 369 353 55 0 0 1 17 361 357 359 362 93 366 360 0 354 +17 362
 357 361 358 91 350 349 0 352 -50 363 272 0 364 355 373 0 +0e0 0e0 3.302e-1 0e0
 0e0 -1e0 1e0 0e0 0e0 14 364 273 0 ?356 374 368 78 363 -0 0 356 374 80 15 365
 274 0 367 364 0 17 366 365 367 367 91 361 360 0 362 -17 367 365 366 366 93 352
 351 0 361 +15 368 275 0 372 364 365 16 369 276 0 ?379 371 360 56 0 0 1 17 370
 368 372 372 99 379 369 0 0 -16 371 277 0 ?387 377 369 57 0 0 1 17 372 368 370
 370 101 387 371 0 0 -51 373 278 0 374 363 382 0 +0e0 0e0 3.302e-1 0e0 0e0 1e0
 2.54e-1 -1e0 0e0 0e0 14 374 279 0 ?364 383 375 78 373 -0 0 364 383 80 15 375
 280 0 381 374 0 17 376 375 381 378 95 183 182 0 185 -16 377 281 0 ?378 380 371
 59 0 0 1 17 378 375 376 379 97 388 377 0 183 +17 379 375 378 381 101 370 369 0
 372 +16 380 282 0 ?386 393 377 58 0 0 1 17 381 375 379 376 99 386 380 0 370 -
51 382 283 0 383 373 389 0 +0e0 0e0 3.302e-1 0e0 0e0 1e0 2.54e-1 -1e0 0e0 0e0
 14 383 284 0 ?374 390 384 78 382 -0 0 374 390 80 15 384 285 0 388 383 0 17 385
 384 388 386 97 185 184 0 378 -17 386 384 385 387 95 381 380 0 376 +17 387 384
 386 388 99 372 371 0 381 +17 388 384 387 385 101 378 377 0 379 -51 389 286 0
 390 382 399 0 +-5.969e-1 5.969e-1 8.382e-1 0e0 0e0 1e0 1.3335e-1 1e0 0e0 0e0
 14 390 287 0 ?383 400 391 78 389 -0 0 383 400 80 15 391 288 0 398 390 0 17 392
 391 398 394 161 272 271 0 274 +16 393 289 0 ?406 395 380 60 0 0 1 17 394 391
 392 396 159 406 393 0 272 -16 395 290 0 ?410 397 393 62 0 0 1 17 396 391 394
 398 151 410 395 0 0 -16 397 291 0 ?398 404 395 61 0 0 1 17 398 391 396 392 153
 403 397 0 0 +51 399 292 0 400 389 407 0 +-5.969e-1 5.969e-1 8.382e-1 0e0 0e0
 1e0 1.3335e-1 1e0 0e0 0e0 14 400 293 0 ?390 408 401 78 399 -0 0 390 408 80 15
 401 294 0 406 400 0 17 402 401 406 403 159 274 273 0 394 +17 403 401 402 405
 161 398 397 0 392 -16 404 295 0 ?411 413 397 63 0 0 1 17 405 401 403 406 153
 411 404 0 398 -17 406 401 405 402 151 394 393 0 396 +50 407 296 0 408 399 417
 0 +0e0 0e0 6.731e-1 0e0 0e0 1e0 1e0 0e0 0e0 14 408 297 0 ?400 418 412 78 407 +
0 0 400 418 80 15 409 298 0 411 408 0 17 410 409 411 411 153 396 395 0 405 +17
 411 409 410 410 151 405 404 0 406 +15 412 299 0 416 408 409 16 413 300 0 ?420
 415 404 64 0 0 1 17 414 412 416 416 167 420 413 0 0 -16 415 301 0 ?429 421 413
 66 0 0 1 17 416 412 414 414 169 429 415 0 0 -51 417 302 0 418 407 426 0 +
-5.969e-1 5.969e-1 8.382e-1 0e0 0e0 1e0 6.985e-2 1e0 0e0 0e0 14 418 303 0 ?408
 427 419 78 417 -0 0 408 427 80 15 419 304 0 425 418 0 17 420 419 425 422 169
 414 413 0 416 +16 421 305 0 ?432 424 415 65 0 0 1 17 422 419 420 423 167 432
 421 0 414 -17 423 419 422 425 143 221 220 0 223 -16 424 306 0 ?425 437 421 67
 0 0 1 17 425 419 423 420 145 430 424 0 221 +51 426 307 0 427 417 433 0 +
-5.969e-1 5.969e-1 8.382e-1 0e0 0e0 1e0 6.985e-2 1e0 0e0 0e0 14 427 308 0 ?418
 434 428 78 426 -0 0 418 434 80 15 428 309 0 432 427 0 17 429 428 432 430 167
 416 415 0 422 +17 430 428 429 431 169 425 424 0 420 -17 431 428 430 432 145
 223 222 0 425 -17 432 428 431 429 143 422 421 0 423 +51 433 310 0 434 426 443
 0 +5.969e-1 -5.969e-1 8.382e-1 0e0 0e0 1e0 1.4605e-1 1e0 0e0 0e0 14 434 311 0 ?
427 444 435 78 433 -0 0 427 444 80 15 435 312 0 442 434 0 17 436 435 442 438
 165 277 276 0 279 +16 437 313 0 ?450 439 424 68 0 0 1 17 438 435 436 440 163
 450 437 0 277 -16 439 314 0 ?454 441 437 70 0 0 1 17 440 435 438 442 155 454
 439 0 0 -16 441 315 0 ?442 448 439 69 0 0 1 17 442 435 440 436 157 447 441 0 0
 +51 443 316 0 444 433 451 0 +5.969e-1 -5.969e-1 8.382e-1 0e0 0e0 1e0 1.4605e-1
 1e0 0e0 0e0 14 444 317 0 ?434 452 445 78 443 -0 0 434 452 80 15 445 318 0 450
 444 0 17 446 445 450 447 163 279 278 0 438 +17 447 445 446 449 165 442 441 0
 436 -16 448 319 0 ?455 457 441 71 0 0 1 17 449 445 447 450 157 455 448 0 442 -
17 450 445 449 446 155 438 437 0 440 +50 451 320 0 452 443 461 0 +0e0 0e0
 6.731e-1 0e0 0e0 1e0 1e0 0e0 0e0 14 452 321 0 ?444 462 456 78 451 +0 0 444 462
 80 15 453 322 0 455 452 0 17 454 453 455 455 157 440 439 0 449 +17 455 453 454
 454 155 449 448 0 450 +15 456 323 0 460 452 453 16 457 324 0 ?464 459 448 72 0
 0 1 17 458 456 460 460 171 464 457 0 0 -16 459 325 0 ?473 465 457 74 0 0 1 17
 460 456 458 458 173 473 459 0 0 -51 461 326 0 462 451 470 0 +5.969e-1
 -5.969e-1 8.382e-1 0e0 0e0 1e0 6.985e-2 1e0 0e0 0e0 14 462 327 0 ?452 471 463
 78 461 -0 0 452 471 80 15 463 328 0 469 462 0 17 464 463 469 466 173 458 457 0
 460 +16 465 329 0 ?476 468 459 73 0 0 1 17 466 463 464 467 171 476 465 0 458 -
17 467 463 466 469 147 226 225 0 228 -16 468 330 0 ?469 0 465 75 0 0 1 17 469
 463 467 464 149 474 468 0 226 +51 470 331 0 471 461 477 0 +5.969e-1 -5.969e-1
 8.382e-1 0e0 0e0 1e0 6.985e-2 1e0 0e0 0e0 14 471 332 0 ?462 478 472 78 470 -0
 0 462 478 80 15 472 333 0 476 471 0 17 473 472 476 474 171 460 459 0 466 +17
 474 472 473 475 173 469 468 0 464 -17 475 472 474 476 149 228 227 0 469 -17
 476 472 475 473 147 466 465 0 467 +51 477 334 0 478 470 0 0 +0e0 0e0 0e0 0e0
 0e0 1e0 4.8641e-1 1e0 0e0 0e0 14 478 335 0 ?471 0 479 78 477 +0 0 471 0 80 15
 479 336 0 483 478 0 17 480 479 483 481 89 218 217 0 216 -17 481 479 480 482 87
 195 194 0 218 +17 482 479 481 483 83 180 179 0 195 +17 483 479 482 480 85 192
 191 0 193 -1 0 
