solid OpenSCAD_Model
  facet normal -1 -0 -0
    outer loop
      vertex 0 -35 0
      vertex 0 -35 1.5
      vertex 0 -5 0
    endloop
  endfacet
  facet normal -1 0 0
    outer loop
      vertex 0 -5 0
      vertex 0 -35 1.5
      vertex 0 -5 1.5
    endloop
  endfacet
  facet normal 0 -1 0
    outer loop
      vertex 0 -35 1.5
      vertex 0 -35 0
      vertex 50 -35 0
    endloop
  endfacet
  facet normal 0 -1 0
    outer loop
      vertex 50 -35 1.5
      vertex 0 -35 1.5
      vertex 50 -35 0
    endloop
  endfacet
  facet normal -0 -0 -1
    outer loop
      vertex 0 -35 0
      vertex 0 -5 0
      vertex 50 -35 0
    endloop
  endfacet
  facet normal 0 0 -1
    outer loop
      vertex 50 -35 0
      vertex 0 -5 0
      vertex 50 -5 0
    endloop
  endfacet
  facet normal 0 1 0
    outer loop
      vertex 0 -5 0
      vertex 0 -5 1.5
      vertex 50 -5 0
    endloop
  endfacet
  facet normal 0 1 0
    outer loop
      vertex 50 -5 0
      vertex 0 -5 1.5
      vertex 50 -5 1.5
    endloop
  endfacet
  facet normal 0 -0 1
    outer loop
      vertex 5 -34 1.5
      vertex 0 -35 1.5
      vertex 50 -35 1.5
    endloop
  endfacet
  facet normal -0 -0 1
    outer loop
      vertex 5 -8 1.5
      vertex 0 -5 1.5
      vertex 9 -32 1.5
    endloop
  endfacet
  facet normal -0 -0 1
    outer loop
      vertex 9 -34 1.5
      vertex 5 -34 1.5
      vertex 50 -35 1.5
    endloop
  endfacet
  facet normal 0 -0 1
    outer loop
      vertex 0 -5 1.5
      vertex 0 -35 1.5
      vertex 5 -34 1.5
    endloop
  endfacet
  facet normal 0 -0 1
    outer loop
      vertex 9 -6 1.5
      vertex 9 -8 1.5
      vertex 50 -5 1.5
    endloop
  endfacet
  facet normal 0 0 1
    outer loop
      vertex 0 -5 1.5
      vertex 5 -34 1.5
      vertex 5 -32 1.5
    endloop
  endfacet
  facet normal -0 -0 1
    outer loop
      vertex 41 -34 1.5
      vertex 9 -32 1.5
      vertex 50 -35 1.5
    endloop
  endfacet
  facet normal 0 0 1
    outer loop
      vertex 0 -5 1.5
      vertex 5 -32 1.5
      vertex 9 -32 1.5
    endloop
  endfacet
  facet normal 0 0 1
    outer loop
      vertex 45 -32 1.5
      vertex 5 -8 1.5
      vertex 41 -32 1.5
    endloop
  endfacet
  facet normal -0 0 1
    outer loop
      vertex 5 -6 1.5
      vertex 0 -5 1.5
      vertex 5 -8 1.5
    endloop
  endfacet
  facet normal 0 0 1
    outer loop
      vertex 50 -5 1.5
      vertex 0 -5 1.5
      vertex 5 -6 1.5
    endloop
  endfacet
  facet normal 0 -0 1
    outer loop
      vertex 45 -32 1.5
      vertex 45 -34 1.5
      vertex 50 -35 1.5
    endloop
  endfacet
  facet normal 0 0 1
    outer loop
      vertex 50 -5 1.5
      vertex 5 -6 1.5
      vertex 9 -6 1.5
    endloop
  endfacet
  facet normal 0 -0 1
    outer loop
      vertex 41 -8 1.5
      vertex 9 -8 1.5
      vertex 50 -35 1.5
    endloop
  endfacet
  facet normal -0 -0 1
    outer loop
      vertex 45 -34 1.5
      vertex 41 -34 1.5
      vertex 50 -35 1.5
    endloop
  endfacet
  facet normal 0 0 1
    outer loop
      vertex 5 -8 1.5
      vertex 9 -32 1.5
      vertex 41 -34 1.5
    endloop
  endfacet
  facet normal 0 -0 1
    outer loop
      vertex 45 -6 1.5
      vertex 45 -8 1.5
      vertex 50 -5 1.5
    endloop
  endfacet
  facet normal 0 0 1
    outer loop
      vertex 5 -8 1.5
      vertex 41 -34 1.5
      vertex 41 -32 1.5
    endloop
  endfacet
  facet normal 0 0 1
    outer loop
      vertex 9 -8 1.5
      vertex 45 -32 1.5
      vertex 50 -35 1.5
    endloop
  endfacet
  facet normal 0 -0 1
    outer loop
      vertex 9 -8 1.5
      vertex 5 -8 1.5
      vertex 45 -32 1.5
    endloop
  endfacet
  facet normal 0 -0 1
    outer loop
      vertex 45 -8 1.5
      vertex 41 -8 1.5
      vertex 50 -35 1.5
    endloop
  endfacet
  facet normal 0 0 1
    outer loop
      vertex 41 -6 1.5
      vertex 9 -8 1.5
      vertex 41 -8 1.5
    endloop
  endfacet
  facet normal 0 0 1
    outer loop
      vertex 50 -5 1.5
      vertex 9 -8 1.5
      vertex 41 -6 1.5
    endloop
  endfacet
  facet normal 0 0 1
    outer loop
      vertex 50 -5 1.5
      vertex 41 -6 1.5
      vertex 45 -6 1.5
    endloop
  endfacet
  facet normal 0 0 1
    outer loop
      vertex 50 -5 1.5
      vertex 45 -8 1.5
      vertex 50 -35 1.5
    endloop
  endfacet
  facet normal 0 -0 1
    outer loop
      vertex 9 -32 1.5
      vertex 9 -34 1.5
      vertex 50 -35 1.5
    endloop
  endfacet
  facet normal 1 0 -0
    outer loop
      vertex 50 -35 1.5
      vertex 50 -35 0
      vertex 50 -5 0
    endloop
  endfacet
  facet normal 1 0 0
    outer loop
      vertex 50 -5 1.5
      vertex 50 -35 1.5
      vertex 50 -5 0
    endloop
  endfacet
  facet normal -1.77636e-015 -1 0
    outer loop
      vertex 5 -34 4
      vertex 5 -34 1.5
      vertex 9 -34 1.5
    endloop
  endfacet
  facet normal -1.77636e-015 -1 0
    outer loop
      vertex 9 -34 4
      vertex 5 -34 4
      vertex 9 -34 1.5
    endloop
  endfacet
  facet normal -1 4.44089e-016 0
    outer loop
      vertex 5 -34 1.5
      vertex 5 -34 4
      vertex 5 -32 1.5
    endloop
  endfacet
  facet normal -1 4.44089e-016 0
    outer loop
      vertex 5 -32 1.5
      vertex 5 -34 4
      vertex 5 -32 4
    endloop
  endfacet
  facet normal 1 -8.88178e-016 0
    outer loop
      vertex 9 -34 4
      vertex 9 -34 1.5
      vertex 9 -32 1.5
    endloop
  endfacet
  facet normal 1 -8.88178e-016 0
    outer loop
      vertex 9 -34 4.1
      vertex 9 -34 4
      vertex 9 -32 4.1
    endloop
  endfacet
  facet normal 1 -8.88178e-016 0
    outer loop
      vertex 9 -32 4.1
      vertex 9 -34 4
      vertex 9 -32 1.5
    endloop
  endfacet
  facet normal 0 1 0
    outer loop
      vertex 5 -32 8
      vertex 9 -32 8
      vertex 5 -32 4
    endloop
  endfacet
  facet normal 0 1 0
    outer loop
      vertex 5 -32 4
      vertex 9 -32 8
      vertex 9 -32 4.1
    endloop
  endfacet
  facet normal 8.88178e-016 1 0
    outer loop
      vertex 5 -32 4
      vertex 9 -32 4.1
      vertex 9 -32 1.5
    endloop
  endfacet
  facet normal 8.88178e-016 1 -0
    outer loop
      vertex 5 -32 4
      vertex 9 -32 1.5
      vertex 5 -32 1.5
    endloop
  endfacet
  facet normal -1 -0 -0
    outer loop
      vertex 5 -8 1.5
      vertex 5 -8 4.1
      vertex 5 -6 1.5
    endloop
  endfacet
  facet normal -1 0 0
    outer loop
      vertex 5 -6 4
      vertex 5 -8 4.1
      vertex 5 -6 4.1
    endloop
  endfacet
  facet normal -1 0 0
    outer loop
      vertex 5 -6 1.5
      vertex 5 -8 4.1
      vertex 5 -6 4
    endloop
  endfacet
  facet normal 0 -1 0
    outer loop
      vertex 5 -8 4.1
      vertex 5 -8 1.5
      vertex 9 -8 1.5
    endloop
  endfacet
  facet normal 0 -1 0
    outer loop
      vertex 9 -8 4
      vertex 5 -8 4.1
      vertex 9 -8 1.5
    endloop
  endfacet
  facet normal 0 -1 0
    outer loop
      vertex 9 -8 8
      vertex 5 -8 4.1
      vertex 9 -8 4
    endloop
  endfacet
  facet normal 0 -1 0
    outer loop
      vertex 5 -8 8
      vertex 5 -8 4.1
      vertex 9 -8 8
    endloop
  endfacet
  facet normal 1 0 -0
    outer loop
      vertex 9 -8 4
      vertex 9 -8 1.5
      vertex 9 -6 1.5
    endloop
  endfacet
  facet normal 1 0 0
    outer loop
      vertex 9 -6 4
      vertex 9 -8 4
      vertex 9 -6 1.5
    endloop
  endfacet
  facet normal 0 1 0
    outer loop
      vertex 5 -6 1.5
      vertex 5 -6 4
      vertex 9 -6 1.5
    endloop
  endfacet
  facet normal 0 1 0
    outer loop
      vertex 9 -6 1.5
      vertex 5 -6 4
      vertex 9 -6 4
    endloop
  endfacet
  facet normal -1.77636e-015 -1 0
    outer loop
      vertex 41 -34 4
      vertex 41 -34 1.5
      vertex 45 -34 1.5
    endloop
  endfacet
  facet normal -1.77636e-015 -1 0
    outer loop
      vertex 45 -34 4
      vertex 41 -34 4
      vertex 45 -34 1.5
    endloop
  endfacet
  facet normal -1 3.55271e-015 0
    outer loop
      vertex 41 -34 1.5
      vertex 41 -34 4
      vertex 41 -32 1.5
    endloop
  endfacet
  facet normal -1 3.55271e-015 0
    outer loop
      vertex 41 -32 1.5
      vertex 41 -34 4
      vertex 41 -32 4
    endloop
  endfacet
  facet normal 1 -3.55271e-015 0
    outer loop
      vertex 45 -34 4
      vertex 45 -34 1.5
      vertex 45 -32 1.5
    endloop
  endfacet
  facet normal 1 -3.55271e-015 0
    outer loop
      vertex 45 -34 4.1
      vertex 45 -34 4
      vertex 45 -32 4.1
    endloop
  endfacet
  facet normal 1 -3.55271e-015 0
    outer loop
      vertex 45 -32 4.1
      vertex 45 -34 4
      vertex 45 -32 1.5
    endloop
  endfacet
  facet normal 0 1 0
    outer loop
      vertex 41 -32 8
      vertex 45 -32 8
      vertex 41 -32 4
    endloop
  endfacet
  facet normal 0 1 0
    outer loop
      vertex 41 -32 4
      vertex 45 -32 8
      vertex 45 -32 4.1
    endloop
  endfacet
  facet normal 8.88178e-016 1 0
    outer loop
      vertex 41 -32 4
      vertex 45 -32 4.1
      vertex 45 -32 1.5
    endloop
  endfacet
  facet normal 8.88178e-016 1 -0
    outer loop
      vertex 41 -32 4
      vertex 45 -32 1.5
      vertex 41 -32 1.5
    endloop
  endfacet
  facet normal -1 -0 -0
    outer loop
      vertex 41 -8 1.5
      vertex 41 -8 4.1
      vertex 41 -6 1.5
    endloop
  endfacet
  facet normal -1 0 0
    outer loop
      vertex 41 -6 4
      vertex 41 -8 4.1
      vertex 41 -6 4.1
    endloop
  endfacet
  facet normal -1 0 0
    outer loop
      vertex 41 -6 1.5
      vertex 41 -8 4.1
      vertex 41 -6 4
    endloop
  endfacet
  facet normal 0 -1 0
    outer loop
      vertex 41 -8 4.1
      vertex 41 -8 1.5
      vertex 45 -8 1.5
    endloop
  endfacet
  facet normal 0 -1 0
    outer loop
      vertex 45 -8 4
      vertex 41 -8 4.1
      vertex 45 -8 1.5
    endloop
  endfacet
  facet normal 0 -1 0
    outer loop
      vertex 45 -8 8
      vertex 41 -8 4.1
      vertex 45 -8 4
    endloop
  endfacet
  facet normal 0 -1 0
    outer loop
      vertex 41 -8 8
      vertex 41 -8 4.1
      vertex 45 -8 8
    endloop
  endfacet
  facet normal 1 0 -0
    outer loop
      vertex 45 -8 4
      vertex 45 -8 1.5
      vertex 45 -6 1.5
    endloop
  endfacet
  facet normal 1 0 0
    outer loop
      vertex 45 -6 4
      vertex 45 -8 4
      vertex 45 -6 1.5
    endloop
  endfacet
  facet normal 0 1 0
    outer loop
      vertex 41 -6 1.5
      vertex 41 -6 4
      vertex 45 -6 1.5
    endloop
  endfacet
  facet normal 0 1 0
    outer loop
      vertex 45 -6 1.5
      vertex 41 -6 4
      vertex 45 -6 4
    endloop
  endfacet
  facet normal -1 2.22045e-016 -2.22045e-016
    outer loop
      vertex 5 -32 8
      vertex 5 -32 4
      vertex 5 -36 4
    endloop
  endfacet
  facet normal -3.52836e-007 1.5669e-022 1.77636e-015
    outer loop
      vertex 5 -36 4
      vertex 5 -32 4
      vertex 5 -34 4
    endloop
  endfacet
  facet normal 2.22045e-016 0 -1
    outer loop
      vertex 5 -36 4
      vertex 5 -34 4
      vertex 9 -36 4
    endloop
  endfacet
  facet normal 2.22045e-016 0 -1
    outer loop
      vertex 9 -36 4
      vertex 5 -34 4
      vertex 9 -34 4
    endloop
  endfacet
  facet normal 1 -0 0
    outer loop
      vertex 9 -34 4.1
      vertex 9 -32 8
      vertex 9 -36 4
    endloop
  endfacet
  facet normal 1 -0 0
    outer loop
      vertex 9 -32 4.1
      vertex 9 -32 8
      vertex 9 -34 4.1
    endloop
  endfacet
  facet normal 1 0 0
    outer loop
      vertex 9 -34 4
      vertex 9 -34 4.1
      vertex 9 -36 4
    endloop
  endfacet
  facet normal -1.57009e-016 -0.707107 0.707107
    outer loop
      vertex 5 -36 4
      vertex 9 -36 4
      vertex 9 -32 8
    endloop
  endfacet
  facet normal 0 -0.707107 0.707107
    outer loop
      vertex 5 -32 8
      vertex 5 -36 4
      vertex 9 -32 8
    endloop
  endfacet
  facet normal -2.22045e-016 -0 -1
    outer loop
      vertex 5 -6 4
      vertex 5 -4 4
      vertex 9 -6 4
    endloop
  endfacet
  facet normal -2.22045e-016 -0 -1
    outer loop
      vertex 9 -6 4
      vertex 5 -4 4
      vertex 9 -4 4
    endloop
  endfacet
  facet normal -1 -0 -0
    outer loop
      vertex 5 -6 4
      vertex 5 -6 4.1
      vertex 5 -4 4
    endloop
  endfacet
  facet normal -1 0 0
    outer loop
      vertex 5 -8 8
      vertex 5 -6 4.1
      vertex 5 -8 4.1
    endloop
  endfacet
  facet normal -1 0 0
    outer loop
      vertex 5 -4 4
      vertex 5 -6 4.1
      vertex 5 -8 8
    endloop
  endfacet
  facet normal -0 0.707107 0.707107
    outer loop
      vertex 9 -8 8
      vertex 9 -4 4
      vertex 5 -8 8
    endloop
  endfacet
  facet normal 1.19405e-016 0.707107 0.707107
    outer loop
      vertex 5 -8 8
      vertex 9 -4 4
      vertex 5 -4 4
    endloop
  endfacet
  facet normal 1 0 -0
    outer loop
      vertex 9 -8 8
      vertex 9 -8 4
      vertex 9 -6 4
    endloop
  endfacet
  facet normal 1 -0 0
    outer loop
      vertex 9 -4 4
      vertex 9 -8 8
      vertex 9 -6 4
    endloop
  endfacet
  facet normal -1 1.77636e-015 -1.77636e-015
    outer loop
      vertex 41 -32 8
      vertex 41 -32 4
      vertex 41 -36 4
    endloop
  endfacet
  facet normal -3.52836e-007 1.25352e-021 1.42109e-014
    outer loop
      vertex 41 -36 4
      vertex 41 -32 4
      vertex 41 -34 4
    endloop
  endfacet
  facet normal 2.22045e-016 0 -1
    outer loop
      vertex 41 -36 4
      vertex 41 -34 4
      vertex 45 -36 4
    endloop
  endfacet
  facet normal 2.22045e-016 0 -1
    outer loop
      vertex 45 -36 4
      vertex 41 -34 4
      vertex 45 -34 4
    endloop
  endfacet
  facet normal 1 -0 0
    outer loop
      vertex 45 -34 4.1
      vertex 45 -32 8
      vertex 45 -36 4
    endloop
  endfacet
  facet normal 1 -0 0
    outer loop
      vertex 45 -32 4.1
      vertex 45 -32 8
      vertex 45 -34 4.1
    endloop
  endfacet
  facet normal 1 0 0
    outer loop
      vertex 45 -34 4
      vertex 45 -34 4.1
      vertex 45 -36 4
    endloop
  endfacet
  facet normal -1.57009e-016 -0.707107 0.707107
    outer loop
      vertex 41 -36 4
      vertex 45 -36 4
      vertex 45 -32 8
    endloop
  endfacet
  facet normal 0 -0.707107 0.707107
    outer loop
      vertex 41 -32 8
      vertex 41 -36 4
      vertex 45 -32 8
    endloop
  endfacet
  facet normal -2.22045e-016 -0 -1
    outer loop
      vertex 41 -6 4
      vertex 41 -4 4
      vertex 45 -6 4
    endloop
  endfacet
  facet normal -2.22045e-016 -0 -1
    outer loop
      vertex 45 -6 4
      vertex 41 -4 4
      vertex 45 -4 4
    endloop
  endfacet
  facet normal -1 -0 -0
    outer loop
      vertex 41 -6 4
      vertex 41 -6 4.1
      vertex 41 -4 4
    endloop
  endfacet
  facet normal -1 0 0
    outer loop
      vertex 41 -8 8
      vertex 41 -6 4.1
      vertex 41 -8 4.1
    endloop
  endfacet
  facet normal -1 0 0
    outer loop
      vertex 41 -4 4
      vertex 41 -6 4.1
      vertex 41 -8 8
    endloop
  endfacet
  facet normal -0 0.707107 0.707107
    outer loop
      vertex 45 -8 8
      vertex 45 -4 4
      vertex 41 -8 8
    endloop
  endfacet
  facet normal 1.19405e-016 0.707107 0.707107
    outer loop
      vertex 41 -8 8
      vertex 45 -4 4
      vertex 41 -4 4
    endloop
  endfacet
  facet normal 1 0 -0
    outer loop
      vertex 45 -8 8
      vertex 45 -8 4
      vertex 45 -6 4
    endloop
  endfacet
  facet normal 1 -0 0
    outer loop
      vertex 45 -4 4
      vertex 45 -8 8
      vertex 45 -6 4
    endloop
  endfacet
  facet normal -1 -0 -0
    outer loop
      vertex 0 0 0
      vertex 0 0 20
      vertex 0 30 0
    endloop
  endfacet
  facet normal -1 0 0
    outer loop
      vertex 0 30 0
      vertex 0 0 20
      vertex 0 30 20
    endloop
  endfacet
  facet normal 0 -1 0
    outer loop
      vertex 5 0 13.5
      vertex 0 0 0
      vertex 50 0 0
    endloop
  endfacet
  facet normal 0 -1 0
    outer loop
      vertex 9 0 13.5
      vertex 5 0 13.5
      vertex 50 0 0
    endloop
  endfacet
  facet normal 0 -1 0
    outer loop
      vertex 0 0 20
      vertex 0 0 0
      vertex 5 0 13.5
    endloop
  endfacet
  facet normal 0 -1 0
    outer loop
      vertex 9 0 17.5
      vertex 9 0 13.5
      vertex 50 0 0
    endloop
  endfacet
  facet normal 0 -1 0
    outer loop
      vertex 0 0 20
      vertex 5 0 13.5
      vertex 5 0 17.5
    endloop
  endfacet
  facet normal 0 -1 0
    outer loop
      vertex 41 0 13.5
      vertex 9 0 17.5
      vertex 50 0 0
    endloop
  endfacet
  facet normal 0 -1 0
    outer loop
      vertex 50 0 20
      vertex 0 0 20
      vertex 9 0 17.5
    endloop
  endfacet
  facet normal 0 -1 0
    outer loop
      vertex 45 0 13.5
      vertex 41 0 13.5
      vertex 50 0 0
    endloop
  endfacet
  facet normal 0 -1 0
    outer loop
      vertex 41 0 17.5
      vertex 9 0 17.5
      vertex 41 0 13.5
    endloop
  endfacet
  facet normal 0 -1 0
    outer loop
      vertex 50 0 20
      vertex 9 0 17.5
      vertex 41 0 17.5
    endloop
  endfacet
  facet normal 0 -1 0
    outer loop
      vertex 50 0 20
      vertex 41 0 17.5
      vertex 45 0 17.5
    endloop
  endfacet
  facet normal 0 -1 0
    outer loop
      vertex 50 0 20
      vertex 45 0 13.5
      vertex 50 0 0
    endloop
  endfacet
  facet normal -0 -1 0
    outer loop
      vertex 45 0 17.5
      vertex 45 0 13.5
      vertex 50 0 20
    endloop
  endfacet
  facet normal -0 -1 -0
    outer loop
      vertex 5 0 17.5
      vertex 9 0 17.5
      vertex 0 0 20
    endloop
  endfacet
  facet normal -0 -0 -1
    outer loop
      vertex 0 0 0
      vertex 0 30 0
      vertex 50 0 0
    endloop
  endfacet
  facet normal 0 0 -1
    outer loop
      vertex 50 0 0
      vertex 0 30 0
      vertex 50 30 0
    endloop
  endfacet
  facet normal 0 1 -0
    outer loop
      vertex 9 30 17.5
      vertex 50 30 0
      vertex 9 30 13.5
    endloop
  endfacet
  facet normal 0 1 0
    outer loop
      vertex 9 30 17.5
      vertex 0 30 20
      vertex 50 30 20
    endloop
  endfacet
  facet normal 0 1 0
    outer loop
      vertex 0 30 0
      vertex 0 30 20
      vertex 5 30 17.5
    endloop
  endfacet
  facet normal 0 1 0
    outer loop
      vertex 0 30 0
      vertex 5 30 17.5
      vertex 5 30 13.5
    endloop
  endfacet
  facet normal 0 1 0
    outer loop
      vertex 0 30 0
      vertex 5 30 13.5
      vertex 50 30 0
    endloop
  endfacet
  facet normal 0 1 0
    outer loop
      vertex 5 30 13.5
      vertex 9 30 13.5
      vertex 50 30 0
    endloop
  endfacet
  facet normal -0 1 0
    outer loop
      vertex 41 30 17.5
      vertex 9 30 17.5
      vertex 50 30 20
    endloop
  endfacet
  facet normal 0 1 0
    outer loop
      vertex 41 30 13.5
      vertex 9 30 17.5
      vertex 41 30 17.5
    endloop
  endfacet
  facet normal -0 1 0
    outer loop
      vertex 45 30 17.5
      vertex 41 30 17.5
      vertex 50 30 20
    endloop
  endfacet
  facet normal 0 1 0
    outer loop
      vertex 50 30 0
      vertex 9 30 17.5
      vertex 41 30 13.5
    endloop
  endfacet
  facet normal 0 1 0
    outer loop
      vertex 50 30 0
      vertex 45 30 13.5
      vertex 50 30 20
    endloop
  endfacet
  facet normal 0 1 0
    outer loop
      vertex 45 30 13.5
      vertex 45 30 17.5
      vertex 50 30 20
    endloop
  endfacet
  facet normal 0 1 0
    outer loop
      vertex 5 30 17.5
      vertex 0 30 20
      vertex 9 30 17.5
    endloop
  endfacet
  facet normal 0 1 -0
    outer loop
      vertex 45 30 13.5
      vertex 50 30 0
      vertex 41 30 13.5
    endloop
  endfacet
  facet normal 0 -0 1
    outer loop
      vertex 1 1 20
      vertex 0 0 20
      vertex 50 0 20
    endloop
  endfacet
  facet normal 0 -0 1
    outer loop
      vertex 0 30 20
      vertex 0 0 20
      vertex 1 1 20
    endloop
  endfacet
  facet normal 0 0 1
    outer loop
      vertex 1 29 20
      vertex 49 29 20
      vertex 0 30 20
    endloop
  endfacet
  facet normal 0 0 1
    outer loop
      vertex 0 30 20
      vertex 1 1 20
      vertex 1 29 20
    endloop
  endfacet
  facet normal 0 0 1
    outer loop
      vertex 50 30 20
      vertex 49 29 20
      vertex 50 0 20
    endloop
  endfacet
  facet normal 0 0 1
    outer loop
      vertex 50 30 20
      vertex 0 30 20
      vertex 49 29 20
    endloop
  endfacet
  facet normal 0 -0 1
    outer loop
      vertex 49 29 20
      vertex 49 1 20
      vertex 50 0 20
    endloop
  endfacet
  facet normal 0 -0 1
    outer loop
      vertex 49 1 20
      vertex 1 1 20
      vertex 50 0 20
    endloop
  endfacet
  facet normal 1 0 -0
    outer loop
      vertex 50 0 20
      vertex 50 0 0
      vertex 50 30 0
    endloop
  endfacet
  facet normal 1 0 0
    outer loop
      vertex 50 30 20
      vertex 50 0 20
      vertex 50 30 0
    endloop
  endfacet
  facet normal 1 0 0
    outer loop
      vertex 5 1 13.5
      vertex 5 1 17.5
      vertex 5 0 17.5
    endloop
  endfacet
  facet normal 1 0 0
    outer loop
      vertex 5 0 13.5
      vertex 5 1 13.5
      vertex 5 0 17.5
    endloop
  endfacet
  facet normal 0 0 1
    outer loop
      vertex 9 0 13.5
      vertex 9 1 13.5
      vertex 5 1 13.5
    endloop
  endfacet
  facet normal 0 0 1
    outer loop
      vertex 5 0 13.5
      vertex 9 0 13.5
      vertex 5 1 13.5
    endloop
  endfacet
  facet normal -1 0 0
    outer loop
      vertex 9 1 17.5
      vertex 9 1 13.5
      vertex 9 0 17.5
    endloop
  endfacet
  facet normal -1 0 0
    outer loop
      vertex 9 0 17.5
      vertex 9 1 13.5
      vertex 9 0 13.5
    endloop
  endfacet
  facet normal 0 0 -1
    outer loop
      vertex 9 1 17.5
      vertex 9 0 17.5
      vertex 5 1 17.5
    endloop
  endfacet
  facet normal 0 0 -1
    outer loop
      vertex 5 1 17.5
      vertex 9 0 17.5
      vertex 5 0 17.5
    endloop
  endfacet
  facet normal 1 0 0
    outer loop
      vertex 41 1 13.5
      vertex 41 1 17.5
      vertex 41 0 17.5
    endloop
  endfacet
  facet normal 1 0 0
    outer loop
      vertex 41 0 13.5
      vertex 41 1 13.5
      vertex 41 0 17.5
    endloop
  endfacet
  facet normal 0 0 1
    outer loop
      vertex 45 0 13.5
      vertex 45 1 13.5
      vertex 41 1 13.5
    endloop
  endfacet
  facet normal 0 0 1
    outer loop
      vertex 41 0 13.5
      vertex 45 0 13.5
      vertex 41 1 13.5
    endloop
  endfacet
  facet normal -1 0 0
    outer loop
      vertex 45 1 17.5
      vertex 45 1 13.5
      vertex 45 0 17.5
    endloop
  endfacet
  facet normal -1 0 0
    outer loop
      vertex 45 0 17.5
      vertex 45 1 13.5
      vertex 45 0 13.5
    endloop
  endfacet
  facet normal 0 0 -1
    outer loop
      vertex 45 1 17.5
      vertex 45 0 17.5
      vertex 41 1 17.5
    endloop
  endfacet
  facet normal 0 0 -1
    outer loop
      vertex 41 1 17.5
      vertex 45 0 17.5
      vertex 41 0 17.5
    endloop
  endfacet
  facet normal 1 0 0
    outer loop
      vertex 5 30 13.5
      vertex 5 30 17.5
      vertex 5 29 17.5
    endloop
  endfacet
  facet normal 1 0 0
    outer loop
      vertex 5 29 13.5
      vertex 5 30 13.5
      vertex 5 29 17.5
    endloop
  endfacet
  facet normal 0 0 -1
    outer loop
      vertex 9 30 17.5
      vertex 9 29 17.5
      vertex 5 30 17.5
    endloop
  endfacet
  facet normal 0 0 -1
    outer loop
      vertex 5 30 17.5
      vertex 9 29 17.5
      vertex 5 29 17.5
    endloop
  endfacet
  facet normal -1 0 0
    outer loop
      vertex 9 30 17.5
      vertex 9 30 13.5
      vertex 9 29 17.5
    endloop
  endfacet
  facet normal -1 0 0
    outer loop
      vertex 9 29 17.5
      vertex 9 30 13.5
      vertex 9 29 13.5
    endloop
  endfacet
  facet normal 0 0 1
    outer loop
      vertex 9 29 13.5
      vertex 9 30 13.5
      vertex 5 30 13.5
    endloop
  endfacet
  facet normal 0 0 1
    outer loop
      vertex 5 29 13.5
      vertex 9 29 13.5
      vertex 5 30 13.5
    endloop
  endfacet
  facet normal 1 0 0
    outer loop
      vertex 41 30 13.5
      vertex 41 30 17.5
      vertex 41 29 17.5
    endloop
  endfacet
  facet normal 1 0 0
    outer loop
      vertex 41 29 13.5
      vertex 41 30 13.5
      vertex 41 29 17.5
    endloop
  endfacet
  facet normal 0 0 -1
    outer loop
      vertex 45 30 17.5
      vertex 45 29 17.5
      vertex 41 30 17.5
    endloop
  endfacet
  facet normal 0 0 -1
    outer loop
      vertex 41 30 17.5
      vertex 45 29 17.5
      vertex 41 29 17.5
    endloop
  endfacet
  facet normal -1 0 0
    outer loop
      vertex 45 30 17.5
      vertex 45 30 13.5
      vertex 45 29 17.5
    endloop
  endfacet
  facet normal -1 0 0
    outer loop
      vertex 45 29 17.5
      vertex 45 30 13.5
      vertex 45 29 13.5
    endloop
  endfacet
  facet normal 0 0 1
    outer loop
      vertex 45 29 13.5
      vertex 45 30 13.5
      vertex 41 30 13.5
    endloop
  endfacet
  facet normal 0 0 1
    outer loop
      vertex 41 29 13.5
      vertex 45 29 13.5
      vertex 41 30 13.5
    endloop
  endfacet
  facet normal 1 0 0
    outer loop
      vertex 1 29 1.5
      vertex 1 29 20
      vertex 1 1 20
    endloop
  endfacet
  facet normal 1 0 0
    outer loop
      vertex 1 1 1.5
      vertex 1 29 1.5
      vertex 1 1 20
    endloop
  endfacet
  facet normal 0 1 -0
    outer loop
      vertex 45 1 17.5
      vertex 49 1 20
      vertex 45 1 13.5
    endloop
  endfacet
  facet normal 0 1 -0
    outer loop
      vertex 5 1 13.5
      vertex 49 1 1.5
      vertex 1 1 1.5
    endloop
  endfacet
  facet normal 0 1 -0
    outer loop
      vertex 9 1 13.5
      vertex 49 1 1.5
      vertex 5 1 13.5
    endloop
  endfacet
  facet normal 0 1 -0
    outer loop
      vertex 1 1 20
      vertex 5 1 13.5
      vertex 1 1 1.5
    endloop
  endfacet
  facet normal 0 1 -0
    outer loop
      vertex 9 1 17.5
      vertex 49 1 1.5
      vertex 9 1 13.5
    endloop
  endfacet
  facet normal -0 1 -0
    outer loop
      vertex 41 1 13.5
      vertex 49 1 1.5
      vertex 9 1 17.5
    endloop
  endfacet
  facet normal 0 1 0
    outer loop
      vertex 49 1 20
      vertex 9 1 17.5
      vertex 1 1 20
    endloop
  endfacet
  facet normal 0 1 0
    outer loop
      vertex 5 1 17.5
      vertex 1 1 20
      vertex 9 1 17.5
    endloop
  endfacet
  facet normal 0 1 -0
    outer loop
      vertex 45 1 13.5
      vertex 49 1 1.5
      vertex 41 1 13.5
    endloop
  endfacet
  facet normal 0 1 0
    outer loop
      vertex 49 1 20
      vertex 49 1 1.5
      vertex 45 1 13.5
    endloop
  endfacet
  facet normal 0 1 0
    outer loop
      vertex 41 1 17.5
      vertex 41 1 13.5
      vertex 9 1 17.5
    endloop
  endfacet
  facet normal 0 1 0
    outer loop
      vertex 49 1 20
      vertex 45 1 17.5
      vertex 41 1 17.5
    endloop
  endfacet
  facet normal 0 1 0
    outer loop
      vertex 49 1 20
      vertex 41 1 17.5
      vertex 9 1 17.5
    endloop
  endfacet
  facet normal 0 1 0
    outer loop
      vertex 5 1 13.5
      vertex 1 1 20
      vertex 5 1 17.5
    endloop
  endfacet
  facet normal -1 0 0
    outer loop
      vertex 49 29 20
      vertex 49 29 1.5
      vertex 49 1 20
    endloop
  endfacet
  facet normal -1 0 0
    outer loop
      vertex 49 1 20
      vertex 49 29 1.5
      vertex 49 1 1.5
    endloop
  endfacet
  facet normal 0 -1 -0
    outer loop
      vertex 9 29 17.5
      vertex 49 29 20
      vertex 1 29 20
    endloop
  endfacet
  facet normal 0 -1 0
    outer loop
      vertex 9 29 17.5
      vertex 9 29 13.5
      vertex 49 29 1.5
    endloop
  endfacet
  facet normal 0 -1 -0
    outer loop
      vertex 1 29 1.5
      vertex 5 29 17.5
      vertex 1 29 20
    endloop
  endfacet
  facet normal 0 -1 -0
    outer loop
      vertex 41 29 17.5
      vertex 49 29 20
      vertex 9 29 17.5
    endloop
  endfacet
  facet normal -0 -1 0
    outer loop
      vertex 1 29 1.5
      vertex 49 29 1.5
      vertex 9 29 13.5
    endloop
  endfacet
  facet normal 0 -1 0
    outer loop
      vertex 1 29 1.5
      vertex 5 29 13.5
      vertex 5 29 17.5
    endloop
  endfacet
  facet normal 0 -1 0
    outer loop
      vertex 1 29 1.5
      vertex 9 29 13.5
      vertex 5 29 13.5
    endloop
  endfacet
  facet normal 0 -1 0
    outer loop
      vertex 41 29 13.5
      vertex 41 29 17.5
      vertex 9 29 17.5
    endloop
  endfacet
  facet normal 0 -1 -0
    outer loop
      vertex 45 29 17.5
      vertex 49 29 20
      vertex 41 29 17.5
    endloop
  endfacet
  facet normal 0 -1 0
    outer loop
      vertex 49 29 1.5
      vertex 49 29 20
      vertex 45 29 17.5
    endloop
  endfacet
  facet normal 0 -1 0
    outer loop
      vertex 49 29 1.5
      vertex 45 29 17.5
      vertex 45 29 13.5
    endloop
  endfacet
  facet normal 0 -1 0
    outer loop
      vertex 49 29 1.5
      vertex 41 29 13.5
      vertex 9 29 17.5
    endloop
  endfacet
  facet normal 0 -1 0
    outer loop
      vertex 45 29 13.5
      vertex 41 29 13.5
      vertex 49 29 1.5
    endloop
  endfacet
  facet normal -0 -1 -0
    outer loop
      vertex 5 29 17.5
      vertex 9 29 17.5
      vertex 1 29 20
    endloop
  endfacet
  facet normal 0 0 1
    outer loop
      vertex 49 1 1.5
      vertex 49 29 1.5
      vertex 1 29 1.5
    endloop
  endfacet
  facet normal 0 0 1
    outer loop
      vertex 1 1 1.5
      vertex 49 1 1.5
      vertex 1 29 1.5
    endloop
  endfacet
endsolid OpenSCAD_Model
